<svg width="27" height="26" viewBox="0 0 27 26" fill="none" xmlns="http://www.w3.org/2000/svg">
<rect width="27" height="26" rx="13" fill="white"/>
<path d="M12.2803 9.53033C12.5732 9.23744 12.5732 8.76256 12.2803 8.46967C11.9874 8.17678 11.5126 8.17678 11.2197 8.46967L7.21967 12.4697C7.07322 12.6161 7 12.8081 7 13C7 13.1017 7.02024 13.1987 7.05691 13.2871C7.09351 13.3755 7.14776 13.4584 7.21967 13.5303L11.2197 17.5303C11.5126 17.8232 11.9874 17.8232 12.2803 17.5303C12.5732 17.2374 12.5732 16.7626 12.2803 16.4697L9.56066 13.75H19.25C19.6642 13.75 20 13.4142 20 13C20 12.5858 19.6642 12.25 19.25 12.25H9.56066L12.2803 9.53033Z" fill="black" stroke="black" stroke-linecap="round"/>
</svg>
