<svg width="53" height="53" viewBox="0 0 53 53" fill="none" xmlns="http://www.w3.org/2000/svg">
<g clip-path="url(#clip0_28_388)">
<path d="M53 26.5C53 31.7412 51.4458 36.8647 48.534 41.2226C45.6221 45.5805 41.4834 48.9771 36.6411 50.9828C31.7989 52.9885 26.4706 53.5133 21.3301 52.4908C16.1896 51.4683 11.4678 48.9444 7.76168 45.2383C4.05559 41.5322 1.53171 36.8104 0.509202 31.6699C-0.513306 26.5294 0.0114819 21.2011 2.0172 16.3589C4.02293 11.5166 7.4195 7.37791 11.7774 4.46606C16.1353 1.5542 21.2588 0 26.5 0C33.5283 0 40.2686 2.79196 45.2383 7.76167C50.2081 12.7314 53 19.4718 53 26.5Z" fill="#F7931A"/>
<path fill-rule="evenodd" clip-rule="evenodd" d="M18.8341 12.1008L24.9243 13.7317L26.2854 8.6582L29.3305 9.48452L28.0224 14.3485L30.5061 15.0158L31.8167 10.0988L34.9148 10.9276L33.5802 15.871C33.5802 15.871 38.6392 16.9912 39.8293 21.106C41.0194 25.2207 37.2131 27.3817 36.0374 27.4636C36.0374 27.4636 40.4701 29.8943 38.9476 34.6764C37.4251 39.4584 32.7514 40.3137 27.8345 39.2175L26.4998 44.3441L23.4017 43.5153L24.7629 38.4683L22.3056 37.7986L20.9445 42.8817L17.8705 42.0554L19.234 36.9963L12.9824 35.31L14.558 31.812C14.558 31.812 16.3214 32.2938 16.9887 32.4528C17.6561 32.6118 18.0849 31.918 18.2728 31.2242C18.4607 30.5303 21.2914 19.0317 21.5588 18.085C21.8262 17.1382 21.7178 16.3986 20.5951 16.1071C19.4725 15.8156 17.9451 15.3603 17.9451 15.3603L18.8341 12.1008ZM24.9773 27.3287L23.2909 34.0332C23.2909 34.0332 31.6529 37.0517 32.7225 32.8045C33.7922 28.5573 24.9773 27.3287 24.9773 27.3287ZM25.753 24.1487L27.4081 18.0055C27.4081 18.0055 34.5679 19.2871 33.6861 22.7056C32.8044 26.1241 28.5837 24.8136 25.753 24.1487Z" fill="white"/>
</g>
<defs>
<clipPath id="clip0_28_388">
<rect width="53" height="53" fill="white"/>
</clipPath>
</defs>
</svg>
