<svg width="24" height="23" viewBox="0 0 24 23" fill="none" xmlns="http://www.w3.org/2000/svg">
<rect x="1.33663" y="1.1025" width="21.1991" height="20.1896" rx="10.0948" stroke="white" stroke-width="2.01896"/>
<path d="M7.09077 10.1877C6.42175 10.1877 5.87939 10.6397 5.87939 11.1972C5.87939 11.7547 6.42175 12.2067 7.09077 12.2067C7.75979 12.2067 8.30214 11.7547 8.30214 11.1972C8.30214 10.6397 7.75979 10.1877 7.09077 10.1877Z" fill="white"/>
<path d="M10.7249 11.1972C10.7249 10.6397 11.2672 10.1877 11.9363 10.1877C12.6053 10.1877 13.1476 10.6397 13.1476 11.1972C13.1476 11.7547 12.6053 12.2067 11.9363 12.2067C11.2672 12.2067 10.7249 11.7547 10.7249 11.1972Z" fill="white"/>
<path d="M15.5704 11.1972C15.5704 10.6397 16.1127 10.1877 16.7818 10.1877C17.4508 10.1877 17.9931 10.6397 17.9931 11.1972C17.9931 11.7547 17.4508 12.2067 16.7818 12.2067C16.1127 12.2067 15.5704 11.7547 15.5704 11.1972Z" fill="white"/>
</svg>
