<svg width="38" height="37" viewBox="0 0 38 37" fill="none" xmlns="http://www.w3.org/2000/svg">
<rect x="1.45117" y="0.930176" width="36" height="35" rx="17.5" stroke="white"/>
<path d="M19.4512 15.6064C17.889 15.6064 16.6226 16.8707 16.6226 18.4302C16.6226 19.9897 17.889 21.2539 19.4512 21.2539C21.0133 21.2539 22.2797 19.9897 22.2797 18.4302C22.2797 16.8707 21.0133 15.6064 19.4512 15.6064Z" fill="white"/>
<path fill-rule="evenodd" clip-rule="evenodd" d="M14.899 10.6813C17.9 10.3465 21.0024 10.3465 24.0033 10.6813C25.6555 10.8657 26.9881 12.1653 27.1821 13.8205C27.5409 16.8832 27.5409 19.9772 27.1821 23.0399C26.9881 24.6951 25.6555 25.9947 24.0033 26.179C21.0024 26.5139 17.9 26.5139 14.899 26.179C13.2468 25.9947 11.9142 24.6951 11.7203 23.0399C11.3615 19.9772 11.3615 16.8832 11.7203 13.8205C11.9142 12.1653 13.2468 10.8657 14.899 10.6813ZM23.8027 13.2171C23.3221 13.2171 22.9324 13.6061 22.9324 14.0859C22.9324 14.5658 23.3221 14.9548 23.8027 14.9548C24.2834 14.9548 24.673 14.5658 24.673 14.0859C24.673 13.6061 24.2834 13.2171 23.8027 13.2171ZM15.3172 18.4302C15.3172 16.1509 17.168 14.3031 19.4512 14.3031C21.7343 14.3031 23.5852 16.1509 23.5852 18.4302C23.5852 20.7095 21.7343 22.5572 19.4512 22.5572C17.168 22.5572 15.3172 20.7095 15.3172 18.4302Z" fill="white"/>
</svg>
