<svg width="96" height="83" viewBox="0 0 96 83" fill="none" xmlns="http://www.w3.org/2000/svg">
<rect width="96" height="82.7077" rx="8" fill="white" fill-opacity="0.75"/>
<rect x="27" y="21" width="39.8644" height="41" rx="16.785" fill="white" fill-opacity="0.85"/>
<rect x="28.5" y="22.5" width="36.8644" height="38" rx="15.285" stroke="#00A6DE" stroke-opacity="0.05" stroke-width="3"/>
<path fill-rule="evenodd" clip-rule="evenodd" d="M42.0082 37.2406L42.3681 40.4796L41.6398 40.5378C40.6242 40.6188 39.7949 41.3823 39.6303 42.3877C39.2508 44.705 39.2508 47.0686 39.6303 49.3858C39.7949 50.3913 40.6242 51.1547 41.6398 51.2358L43.2093 51.3611C45.6874 51.5589 48.1772 51.5589 50.6553 51.3611L52.2248 51.2358C53.2404 51.1547 54.0697 50.3913 54.2343 49.3858C54.6138 47.0686 54.6138 44.705 54.2343 42.3877C54.0697 41.3823 53.2404 40.6188 52.2248 40.5378L51.4964 40.4796L51.8563 37.2406C51.8987 36.8587 51.8987 36.4734 51.8563 36.0915L51.8324 35.8766C51.5791 33.5966 49.7867 31.7925 47.5083 31.5245C47.1256 31.4795 46.7389 31.4795 46.3562 31.5245C44.0778 31.7925 42.2854 33.5966 42.0321 35.8766L42.0082 36.0915C41.9658 36.4734 41.9658 36.8587 42.0082 37.2406ZM47.3245 33.0873C47.0639 33.0567 46.8006 33.0567 46.54 33.0873C44.9889 33.2698 43.7685 34.498 43.596 36.0504L43.5722 36.2653C43.5426 36.5317 43.5426 36.8005 43.5722 37.0668L43.9381 40.36C45.9321 40.2321 47.9324 40.2321 49.9264 40.36L50.2923 37.0668C50.3219 36.8005 50.3219 36.5317 50.2923 36.2653L50.2685 36.0504C50.096 34.498 48.8756 33.2698 47.3245 33.0873ZM46.9323 44.3132C46.0632 44.3132 45.3587 45.0177 45.3587 45.8868C45.3587 46.7558 46.0632 47.4604 46.9323 47.4604C47.8013 47.4604 48.5059 46.7558 48.5059 45.8868C48.5059 45.0177 47.8013 44.3132 46.9323 44.3132Z" fill="black"/>
</svg>
