<svg width="63" height="67" viewBox="0 0 63 67" fill="none" xmlns="http://www.w3.org/2000/svg">
<g filter="url(#filter0_f_28_1102)">
<path d="M53.2199 42.6889C50.7794 47.3366 41.1442 55.015 35.1883 59.5045C33.8961 60.4785 32.1444 60.5604 30.7495 59.7402C24.6064 56.1275 13.3234 49.4888 10.3878 45.2065C7.02832 40.3058 5.52052 34.3702 6.13382 28.4603C6.74712 22.5503 9.44156 17.0509 13.7358 12.9444C18.0301 8.83788 23.6444 6.39183 29.5758 6.04318C35.5073 5.69453 41.3695 7.46599 46.1153 11.0411C50.8611 14.6162 54.1812 19.7621 55.4827 25.5596C56.7841 31.357 55.9821 37.4283 53.2199 42.6889Z" fill="white"/>
<path d="M36.3922 61.1016C39.3871 58.844 43.3325 55.7659 46.8481 52.6535C50.281 49.6143 53.5767 46.3113 54.9906 43.6186C57.9734 37.938 58.8395 31.3819 57.4341 25.1215C56.0287 18.8611 52.4434 13.3043 47.3187 9.44368C42.194 5.58306 35.8636 3.67013 29.4585 4.04662C23.0534 4.42312 16.9907 7.0645 12.3535 11.4989C7.71638 15.9333 4.80678 21.8719 4.14451 28.2538C3.48223 34.6357 5.11043 41.0452 8.73823 46.3373C9.63704 47.6485 11.0723 49.0113 12.6779 50.3242C14.3127 51.6611 16.2478 53.0447 18.2537 54.3867C22.265 57.0705 26.6706 59.6616 29.7357 61.4641C31.811 62.6846 34.4393 62.5737 36.3922 61.1016Z" stroke="#E10000" stroke-width="4"/>
<path d="M36.3922 61.1016C39.3871 58.844 43.3325 55.7659 46.8481 52.6535C50.281 49.6143 53.5767 46.3113 54.9906 43.6186C57.9734 37.938 58.8395 31.3819 57.4341 25.1215C56.0287 18.8611 52.4434 13.3043 47.3187 9.44368C42.194 5.58306 35.8636 3.67013 29.4585 4.04662C23.0534 4.42312 16.9907 7.0645 12.3535 11.4989C7.71638 15.9333 4.80678 21.8719 4.14451 28.2538C3.48223 34.6357 5.11043 41.0452 8.73823 46.3373C9.63704 47.6485 11.0723 49.0113 12.6779 50.3242C14.3127 51.6611 16.2478 53.0447 18.2537 54.3867C22.265 57.0705 26.6706 59.6616 29.7357 61.4641C31.811 62.6846 34.4393 62.5737 36.3922 61.1016Z" stroke="#FFC247" stroke-opacity="0.15" stroke-width="4"/>
</g>
<defs>
<filter id="filter0_f_28_1102" x="0" y="0" width="62.0908" height="66.3003" filterUnits="userSpaceOnUse" color-interpolation-filters="sRGB">
<feFlood flood-opacity="0" result="BackgroundImageFix"/>
<feBlend mode="normal" in="SourceGraphic" in2="BackgroundImageFix" result="shape"/>
<feGaussianBlur stdDeviation="1" result="effect1_foregroundBlur_28_1102"/>
</filter>
</defs>
</svg>
