<svg width="11" height="11" viewBox="0 0 11 11" fill="none" xmlns="http://www.w3.org/2000/svg">
<path fill-rule="evenodd" clip-rule="evenodd" d="M5.68594 1.25761L4.60524 2.37577C4.49021 2.49478 4.33179 2.56199 4.16627 2.56199H2.63352V4.09474C2.63352 4.26025 2.56632 4.41868 2.4473 4.5337L1.32914 5.61441L2.4473 6.69511C2.56632 6.81014 2.63352 6.96856 2.63352 7.13408V8.66682H4.16627C4.33179 8.66682 4.49021 8.73403 4.60524 8.85304L5.68594 9.97121L6.76664 8.85304C6.88167 8.73403 7.04009 8.66682 7.20561 8.66682H8.73836V7.13407C8.73836 6.96856 8.80556 6.81013 8.92458 6.69511L10.0427 5.61441L8.92458 4.53371C8.80556 4.41868 8.73836 4.26026 8.73836 4.09474V2.56199H7.20561C7.04009 2.56199 6.88167 2.49478 6.76664 2.37577L5.68594 1.25761ZM5.24697 0.657658C5.48695 0.409361 5.88493 0.409362 6.12491 0.657658L7.2574 1.82941H8.86045C9.19761 1.82941 9.47094 2.10273 9.47094 2.43989V4.04294L10.6427 5.17544C10.891 5.41542 10.891 5.8134 10.6427 6.05337L9.47094 7.18587V8.78892C9.47094 9.12608 9.19761 9.3994 8.86045 9.3994H7.2574L6.12491 10.5712C5.88493 10.8195 5.48695 10.8195 5.24697 10.5712L4.11447 9.3994H2.51143C2.17427 9.3994 1.90094 9.12608 1.90094 8.78892V7.18587L0.729191 6.05337C0.480895 5.8134 0.480895 5.41542 0.729191 5.17544L1.90094 4.04294V2.43989C1.90094 2.10273 2.17427 1.82941 2.51143 1.82941H4.11447L5.24697 0.657658Z" fill="white"/>
<path fill-rule="evenodd" clip-rule="evenodd" d="M3.3661 5.61441C3.3661 4.3332 4.40473 3.29457 5.68594 3.29457C6.96715 3.29457 8.00578 4.3332 8.00578 5.61441C8.00578 6.89562 6.96715 7.93424 5.68594 7.93424C4.40473 7.93424 3.3661 6.89562 3.3661 5.61441ZM5.68594 4.02715C4.80932 4.02715 4.09868 4.73779 4.09868 5.61441C4.09868 6.49102 4.80932 7.20166 5.68594 7.20166C6.56256 7.20166 7.2732 6.49102 7.2732 5.61441C7.2732 4.73779 6.56256 4.02715 5.68594 4.02715Z" fill="white"/>
</svg>
