<svg width="35" height="35" viewBox="0 0 35 35" fill="none" xmlns="http://www.w3.org/2000/svg">
<rect x="0.951172" width="34" height="34.43" rx="17" fill="#00A6DE"/>
<path fill-rule="evenodd" clip-rule="evenodd" d="M23.8109 23.4838L23.8115 23.4824L23.8263 23.4464L26.3713 10.932V10.8913C26.3713 10.5795 26.2531 10.3073 25.9961 10.144C25.7711 10.0011 25.5125 9.99093 25.3311 10.0044C25.1393 10.0186 24.9584 10.0652 24.8332 10.1041C24.7688 10.1241 24.7149 10.1434 24.6763 10.158C24.657 10.1653 24.6413 10.1715 24.6299 10.1761L24.6187 10.1807L10.4292 15.6097L10.4253 15.611C10.4176 15.6138 10.4075 15.6175 10.3952 15.6221C10.3708 15.6314 10.3376 15.6446 10.2986 15.6619C10.222 15.6957 10.1161 15.748 10.0087 15.8197C9.82641 15.9415 9.47921 16.2298 9.53784 16.6869C9.5864 17.0655 9.85398 17.306 10.0344 17.4305C10.1311 17.4972 10.2236 17.5453 10.2913 17.5768C10.3257 17.5927 10.3548 17.6049 10.3765 17.6135C10.3874 17.6179 10.3965 17.6213 10.4036 17.6239L10.4126 17.6272L10.4184 17.6293L12.9009 18.4444C12.8925 18.5964 12.908 18.7513 12.9493 18.9041L14.1928 23.5049C14.3403 24.0504 14.8463 24.4304 15.4247 24.43C15.9432 24.4296 16.403 24.1237 16.5983 23.6673L18.5398 21.6426L21.8742 24.1359L21.9216 24.1561C22.2246 24.285 22.5076 24.3259 22.7664 24.2914C23.0248 24.257 23.2301 24.1513 23.3844 24.0309C23.5362 23.9125 23.6402 23.7788 23.7056 23.6781C23.7389 23.627 23.7636 23.5821 23.7808 23.5482C23.7895 23.5313 23.7963 23.5169 23.8014 23.5057L23.8078 23.4913L23.81 23.4859L23.8109 23.4838ZM14.1802 18.5876C14.1519 18.483 14.1963 18.3726 14.2899 18.3147L22.7103 13.0993C22.7103 13.0993 23.2056 12.806 23.1879 13.0993C23.1879 13.0993 23.2763 13.151 23.0109 13.3925C22.7592 13.6219 17.0094 19.036 16.4276 19.5839C16.3941 19.6155 16.374 19.6518 16.3622 19.6958L15.4237 23.1884L14.1802 18.5876Z" fill="white"/>
</svg>
