<svg width="38" height="37" viewBox="0 0 38 37" fill="none" xmlns="http://www.w3.org/2000/svg">
<rect x="1.45117" y="0.930176" width="36" height="35.2812" rx="17.6406" stroke="white"/>
<path d="M29.1848 12.6574C29.2427 12.5766 29.1571 12.4724 29.0644 12.5083C28.4057 12.7636 27.7173 12.9359 27.015 13.0208C27.7969 12.5537 28.4003 11.8426 28.7349 11.0007C28.769 10.9149 28.6753 10.8384 28.5945 10.883C27.8678 11.2843 27.0841 11.5733 26.2699 11.7397C26.2358 11.7467 26.2007 11.7351 26.1768 11.7099C25.5658 11.0652 24.7616 10.636 23.8848 10.4876C22.9897 10.3362 22.0696 10.4861 21.2688 10.914C20.4681 11.3418 19.832 12.0233 19.4603 12.8516C19.1069 13.6392 19.0115 14.5171 19.1858 15.3602C19.1993 15.4256 19.1481 15.4874 19.0815 15.4832C17.4974 15.3849 15.9497 14.9635 14.5337 14.2446C13.1213 13.5276 11.8705 12.53 10.8577 11.3135C10.8127 11.2595 10.7275 11.2665 10.6948 11.3286C10.3796 11.9267 10.2146 12.5933 10.215 13.2708C10.2137 13.9452 10.3792 14.6094 10.6968 15.2043C11.0143 15.7993 11.474 16.3065 12.035 16.6808C11.4401 16.6646 10.8568 16.5175 10.3263 16.2508C10.2579 16.2165 10.1759 16.2654 10.1795 16.3419C10.2208 17.2311 10.5473 18.1238 11.1123 18.8087C11.7137 19.5376 12.5483 20.0364 13.475 20.2208C13.1183 20.3293 12.7479 20.3866 12.375 20.3908C12.1721 20.3884 11.9695 20.3734 11.7686 20.346C11.694 20.3358 11.6332 20.4065 11.6593 20.4771C11.9357 21.2246 12.424 21.8768 13.0661 22.3529C13.7526 22.8619 14.5806 23.1443 15.435 23.1608C13.9922 24.296 12.2109 24.9156 10.375 24.9208C10.1864 24.9214 9.99782 24.9153 9.80971 24.9025C9.7037 24.8952 9.65495 25.0365 9.74632 25.0907C11.5351 26.1522 13.5796 26.7133 15.665 26.7108C17.2047 26.7268 18.7322 26.4358 20.1581 25.8549C21.5841 25.2739 22.8801 24.4147 23.9702 23.3273C25.0604 22.2399 25.923 20.9462 26.5076 19.5217C27.0922 18.0972 27.3871 16.5705 27.375 15.0308V14.5509C27.375 14.5194 27.39 14.4897 27.4152 14.4707C28.0934 13.9585 28.6899 13.3471 29.1848 12.6574Z" fill="white"/>
</svg>
