<svg width="99" height="101" viewBox="0 0 99 101" fill="none" xmlns="http://www.w3.org/2000/svg">
<rect x="0.398926" width="98.2026" height="100.996" rx="41.3485" fill="white"/>
<rect x="4.09405" y="3.69512" width="90.8124" height="93.6053" rx="37.6533" stroke="#00A6DE" stroke-opacity="0.15" stroke-width="7.39024"/>
<path fill-rule="evenodd" clip-rule="evenodd" d="M45.708 29.8061C45.0684 29.8993 44.4419 30.0671 43.8414 30.3062C40.2666 31.7293 38.1458 35.4297 38.7251 39.2332L38.8053 39.7598C38.9047 40.4124 39.0761 41.052 39.3164 41.6668L41.6808 47.7181C47.3386 47.3334 53.0177 47.3667 58.6718 47.8181L62.5384 48.1267C65.0404 48.3264 67.0834 50.207 67.489 52.6836C68.4238 58.3916 68.4238 64.2137 67.489 69.9218C67.0834 72.3984 65.0404 74.2789 62.5384 74.4787L58.6718 74.7873C52.567 75.2746 46.4331 75.2746 40.3283 74.7873L36.4617 74.4787C33.9597 74.2789 31.9167 72.3984 31.5111 69.9218C30.5764 64.2137 30.5764 58.3916 31.5111 52.6836C31.9167 50.207 33.9597 48.3264 36.4617 48.1267L37.6417 48.0325L35.7055 43.0774C35.3611 42.1959 35.1154 41.279 34.9729 40.3435L34.8927 39.8168C34.0417 34.2304 37.1567 28.7953 42.4074 26.705C43.2894 26.3538 44.2096 26.1073 45.149 25.9704C50.7415 25.1557 56.1571 28.3053 58.2137 33.5687L58.4076 34.0649C58.752 34.9464 58.9977 35.8633 59.1402 36.7988L59.5055 39.1969C59.613 39.9024 59.1281 40.5613 58.4226 40.6688L57.1451 40.8633C56.4396 40.9708 55.7805 40.486 55.6731 39.7805L55.3078 37.3825C55.2084 36.7299 55.037 36.0903 54.7967 35.4755L54.6029 34.9793C53.2026 31.3958 49.5155 29.2514 45.708 29.8061ZM49.5 57.4265C47.359 57.4265 45.6234 59.1619 45.6234 61.3027C45.6234 63.4434 47.359 65.1789 49.5 65.1789C51.641 65.1789 53.3766 63.4434 53.3766 61.3027C53.3766 59.1619 51.641 57.4265 49.5 57.4265Z" fill="black"/>
</svg>
