<svg width="24" height="24" viewBox="0 0 24 24" fill="none" xmlns="http://www.w3.org/2000/svg">
<g clip-path="url(#clip0_28_1084)">
<path d="M12 23.1143C18.6274 23.1143 24 17.9655 24 11.6143C24 5.26298 18.6274 0.114258 12 0.114258C5.37258 0.114258 0 5.26298 0 11.6143C0 17.9655 5.37258 23.1143 12 23.1143Z" fill="#FAA00D"/>
<path d="M19.494 10.5153L12.3923 18.4287L12.0735 18.8018L4.50525 10.5951L4.52925 10.5857L4.5 10.5814L7.4415 5.86857L7.443 5.87001L7.4415 5.86426H16.632L16.6305 5.86929L19.5 10.5146L19.494 10.5153ZM9.642 10.8452L8.0145 13.4859L12.0285 17.8789L16.0507 13.4499L14.4592 10.8373L9.642 10.8452ZM7.5585 12.9871L8.8785 10.8459L5.607 10.8509L7.5585 12.9871ZM14.8507 10.2228L18.5662 10.217L16.2338 6.47376L12.5723 6.48095L14.8507 10.2228ZM18.429 10.8308L15.2242 10.8359L16.509 12.9454L18.429 10.8308ZM14.0858 10.2242L12.0675 6.90932L10.02 10.2299L14.0858 10.2242ZM7.7865 6.49101L5.4615 10.2379L9.2565 10.2314L11.5665 6.48382L7.7865 6.49101Z" fill="white"/>
</g>
<defs>
<clipPath id="clip0_28_1084">
<rect width="24" height="23" fill="white" transform="translate(0 0.114258)"/>
</clipPath>
</defs>
</svg>
